<svg xmlns="http://www.w3.org/2000/svg" viewBox="0 0 32 32">
  <defs>
    <linearGradient id="bg" x1="0%" y1="0%" x2="100%" y2="100%">
      <stop offset="0%" stop-color="#22c55e"/>
      <stop offset="100%" stop-color="#15803d"/>
    </linearGradient>
  </defs>
  <!-- Rounded square background with green gradient -->
  <rect width="32" height="32" rx="7" fill="url(#bg)"/>
  <!-- Subtle dark overlay for depth -->
  <rect width="32" height="32" rx="7" fill="black" opacity="0.08"/>
  <!-- Wrench icon (Lucide) scaled and centered -->
  <g transform="translate(6,6) scale(0.833)" fill="none" stroke="white" stroke-width="2.2" stroke-linecap="round" stroke-linejoin="round">
    <path d="M14.7 6.3a1 1 0 0 0 0 1.4l1.6 1.6a1 1 0 0 0 1.4 0l3.77-3.77a6 6 0 0 1-7.94 7.94l-6.91 6.91a2.12 2.12 0 0 1-3-3l6.91-6.91a6 6 0 0 1 7.94-7.94l-3.76 3.76z"/>
  </g>
</svg>
